# xmcd
#
# Track frame offsets:
# 150
# 3742
# 19900
# 33034
# 43824
# 56324
# 69960
# 82404
# 97069
# 105620
# 119760
# 133046
# 137864
# 149332
# 165596
# 179304
# 190552
# 207605
# 229070
# 241260
# 252069
# 264500
# 275005
# 290980
# 304333
# 316054
#
# Disc length: 4395 seconds
#
# Revision: 0
# Processed by: cddbd v1.4PL0 Copyright (c) Steve Scherf et al.
# Submitted via: Audion 3.0.2 (http://www.panic.com/audion/)
#
DISCID=8811291a
DTITLE=Tex Williams - On The Air 1947-1949
DYEAR=1900
DGENRE=
TTITLE0=Theme: Smoke Smoke Smoke
TTITLE1=What's The Matter With You
TTITLE2=Texas Playboy Rag
TTITLE3=Don't Telephone, Don't Telegraph
TTITLE4=Spanish Two Step
TTITLE5=Spanish Fandango
TTITLE6=Palace Stomp
TTITLE7=Careless Love
TTITLE8=Don't Come Crying To Me
TTITLE9=San Antonio Rose
TTITLE10=Theme: Smoke Smoke Smoke
TTITLE11=The Covered Wagon Rolled Right Along
TTITLE12=I Found A New Baby
TTITLE13=Brush Those Tears From Your Eyes
TTITLE14=Who Clipped Samson's Hair
TTITLE15=Swanee River
TTITLE16=Careless Love
TTITLE17=Caravan Ride
TTITLE18=Riverside Stomp
TTITLE19=One O'Clock Jump
TTITLE20=Steel Guitar Rag
TTITLE21=Please Don't Leave Me Any More
TTITLE22=Three Way Boogie
TTITLE23=She's A Real Gone Oakie
TTITLE24=South
TTITLE25=Theme: Smoke Smoke Smoke
EXTD=
EXTT0=
EXTT1=
EXTT2=
EXTT3=
EXTT4=
EXTT5=
EXTT6=
EXTT7=
EXTT8=
EXTT9=
EXTT10=
EXTT11=
EXTT12=
EXTT13=
EXTT14=
EXTT15=
EXTT16=
EXTT17=
EXTT18=
EXTT19=
EXTT20=
EXTT21=
EXTT22=
EXTT23=
EXTT24=
EXTT25=
PLAYORDER=
